<svg width="200" height="30" viewBox="0 0 200 30" fill="none" xmlns="http://www.w3.org/2000/svg">
<g clip-path="url(#clip0_2606_6204)">
<path d="M5.97905 0.645508H0.15332V29.3509H16.4853V24.1974H5.97905V0.645508Z" fill="#212529"/>
<path d="M25.8955 0.645508H20.0698V29.3509H25.8955V0.645508Z" fill="#212529"/>
<path d="M42.7014 24.297H40.8093L35.83 0.645508H29.7056L36.3778 29.3509H47.133L53.8052 0.645508H47.6807L42.7014 24.297Z" fill="#212529"/>
<path d="M165.514 6.02297C166.31 5.52504 167.605 5.27608 169.472 5.27608C171.314 5.27608 173.63 5.47525 176.418 5.89849L176.592 1.24288C173.406 0.4711 170.617 0.0976562 168.202 0.0976562C164.02 0.0976562 161.132 1.19309 159.563 3.35907C157.995 5.54994 157.223 9.40886 157.223 14.9358C157.223 17.5748 157.373 19.7657 157.696 21.5333C157.995 23.2761 158.568 24.7948 159.389 26.0894C160.211 27.384 161.331 28.33 162.775 28.9275C164.219 29.525 166.136 29.8238 168.526 29.8238C170.916 29.8238 173.605 29.5001 176.592 28.8528L176.418 24.1226C173.804 24.5209 171.339 24.7201 168.999 24.7201C166.659 24.7201 165.14 24.0728 164.343 22.803C163.572 21.5333 163.173 19.218 163.173 15.9068C163.173 12.5956 163.373 10.2304 163.746 8.86114C164.144 7.46695 164.742 6.52089 165.514 6.02297Z" fill="#212529"/>
<path d="M199.847 0.645508H181.274V5.69945H199.847V0.645508Z" fill="#212529"/>
<path d="M187.1 17.4011H197.307V12.4219H187.1H181.274V17.426H187.1V17.4011Z" fill="#212529"/>
<path d="M199.847 24.2969H181.274V29.3508H199.847V24.2969Z" fill="#212529"/>
<path d="M76.1859 0.645508H57.6133V5.69945H76.1859V0.645508Z" fill="#212529"/>
<path d="M63.439 17.4011H73.6465V12.4219H63.439H57.6133V17.426H63.439V17.4011Z" fill="#212529"/>
<path d="M76.1859 24.2969H57.6133V29.3508H76.1859V24.2969Z" fill="#212529"/>
<path d="M80.9912 29.3518H86.8169V19.219H97.0244V14.165H80.9912V29.3518Z" fill="#212529"/>
<path d="M99.3149 0.645508H80.9912V5.69945H99.3149V0.645508Z" fill="#212529"/>
<path d="M153.441 10.1061C153.441 3.80733 150.055 0.645508 143.308 0.645508H132.154V5.62476H143.308C144.652 5.62476 145.698 6.0231 146.42 6.84468C147.142 7.66625 147.49 8.76169 147.49 10.131C147.49 11.5003 147.142 12.6206 146.47 13.4671C145.797 14.3136 144.752 14.7368 143.383 14.7368H132.154V29.3509H137.98V19.7409H143.607L146.943 29.3758H153.316L149.233 18.3965C152.046 16.604 153.441 13.8405 153.441 10.1061Z" fill="#212529"/>
<path d="M114.776 -0.000976562C106.486 -0.000976562 99.7637 6.72101 99.7637 15.0115C99.7637 23.3019 106.486 30.0239 114.776 30.0239C123.067 30.0239 129.789 23.3019 129.789 15.0115C129.789 6.72101 123.067 -0.000976562 114.776 -0.000976562ZM107.905 21.4098C107.631 21.6837 107.208 21.6837 106.959 21.4098C106.087 20.5384 105.415 19.5426 104.967 18.4223C104.519 17.3268 104.295 16.1816 104.295 15.0115C104.295 13.8413 104.519 12.6961 104.967 11.6007C105.415 10.4804 106.087 9.4596 106.959 8.61313C107.233 8.33927 107.656 8.33927 107.905 8.61313C108.179 8.88699 108.179 9.31023 107.905 9.55919C106.461 11.0032 105.639 12.9451 105.639 15.0115C105.639 17.0779 106.436 18.9949 107.905 20.4638C108.029 20.5882 108.104 20.7625 108.104 20.9368C108.104 21.1111 108.029 21.2604 107.905 21.4098ZM109.797 19.9658C109.523 20.2397 109.1 20.2397 108.851 19.9658C107.531 18.6463 106.784 16.8787 106.784 15.0115C106.784 13.1442 107.506 11.3766 108.851 10.0571C109.125 9.78326 109.548 9.78326 109.797 10.0571C109.921 10.1816 109.996 10.3559 109.996 10.5301C109.996 10.7044 109.921 10.8787 109.797 11.0032C107.581 13.2189 107.581 16.804 109.797 19.0198C110.071 19.2687 110.071 19.692 109.797 19.9658ZM111.689 17.526C111.963 17.7999 111.963 18.2231 111.689 18.472C111.415 18.7459 110.992 18.7459 110.743 18.472C109.822 17.5509 109.299 16.3061 109.299 14.9866C109.299 13.6671 109.822 12.4472 110.743 11.5011C111.017 11.2272 111.44 11.2272 111.689 11.5011C111.813 11.6256 111.888 11.7999 111.888 11.9741C111.888 12.1484 111.813 12.3227 111.689 12.4472C111.017 13.1194 110.643 14.0156 110.643 14.9866C110.643 15.9575 111.017 16.8538 111.689 17.526ZM114.776 17.4264C113.432 17.4264 112.361 16.331 112.361 15.0115C112.361 13.6671 113.457 12.5965 114.776 12.5965C116.096 12.5965 117.191 13.692 117.191 15.0115C117.216 16.3559 116.121 17.4264 114.776 17.4264ZM117.888 18.472C117.764 18.3476 117.689 18.1733 117.689 17.999C117.689 17.8247 117.764 17.6505 117.888 17.526C118.56 16.8538 118.934 15.9575 118.934 14.9866C118.934 14.0405 118.56 13.1443 117.888 12.4472C117.614 12.1733 117.614 11.7501 117.888 11.5011C118.162 11.2272 118.585 11.2272 118.834 11.5011C119.755 12.4223 120.278 13.6671 120.278 14.9866C120.278 16.3061 119.755 17.526 118.834 18.472C118.56 18.7459 118.137 18.7459 117.888 18.472ZM119.755 19.9658C119.631 19.8413 119.556 19.6671 119.556 19.4928C119.556 19.3185 119.631 19.1443 119.755 19.0198C121.971 16.804 121.971 13.2189 119.755 11.0032C119.482 10.7293 119.482 10.3061 119.755 10.0571C120.029 9.78326 120.452 9.78326 120.701 10.0571C122.021 11.3766 122.768 13.1442 122.768 15.0115C122.768 16.8787 122.046 18.6463 120.701 19.9658C120.452 20.2397 120.029 20.2397 119.755 19.9658ZM124.585 18.3974C124.137 19.5177 123.465 20.5384 122.594 21.3849C122.32 21.6588 121.896 21.6588 121.647 21.3849C121.374 21.1111 121.374 20.6878 121.647 20.4389C123.091 18.9949 123.913 17.053 123.913 14.9866C123.913 12.9202 123.116 11.0032 121.647 9.53429C121.523 9.40981 121.448 9.23554 121.448 9.06126C121.448 8.88699 121.523 8.71272 121.647 8.58823C121.921 8.31438 122.345 8.31438 122.594 8.58823C123.465 9.4596 124.137 10.4555 124.585 11.5758C125.033 12.6712 125.257 13.8164 125.257 14.9866C125.257 16.1816 125.033 17.3268 124.585 18.3974Z" fill="#212529"/>
</g>
<defs>
<clipPath id="clip0_2606_6204">
<rect width="199.693" height="30" fill="white" transform="translate(0.15332)"/>
</clipPath>
</defs>
</svg>
