<svg width="98" height="44" viewBox="0 0 98 44" fill="none" xmlns="http://www.w3.org/2000/svg">
<g clip-path="url(#clip0_1_774)">
<path d="M70.5744 12.3494C70.5744 12.3903 61.3481 16.848 61.2622 16.9134C61.4567 17.2634 61.6811 17.5959 61.9329 17.9072C62.7453 18.8894 63.2022 20.1173 63.2293 21.3916L63.2007 40.8953C63.1953 41.2381 63.2581 41.5787 63.3856 41.897C63.513 42.2153 63.7026 42.5051 63.9431 42.7494C64.1837 42.9938 64.4704 43.1878 64.7867 43.3203C65.103 43.4527 65.4425 43.5209 65.7854 43.5209H72.7624C72.656 43.3327 70.5826 40.1714 70.5826 38.9568L70.5744 12.3494Z" fill="#FCF5F4"/>
<path d="M96.4457 38.6092V21.7311C96.2985 21.7311 87.3216 23.7759 87.3216 23.7759C87.3216 23.7759 89.3665 24.4834 89.3419 27.4362V36.5275C89.2315 38.6133 87.5752 39.9383 85.5262 39.9383C81.4611 39.9383 81.6697 35.3252 81.6697 35.3252V21.7311C81.4979 21.7106 81.5265 21.7311 72.5456 23.7759C72.5456 23.7759 74.5904 24.4834 74.5659 27.4362L74.6027 36.5275C74.6962 38.3673 75.4978 40.0995 76.8398 41.3615C78.3472 42.7901 80.3582 43.5648 82.4344 43.5168C83.9394 43.5168 87.5915 43.2305 89.1006 41.9504C89.1742 42.2367 90.8674 43.3205 94.1555 43.3205H97.4272C96.826 43.1242 96.4498 41.8359 96.4498 38.6051" fill="#FCF5F4"/>
<path d="M34.8674 37.824V28.7326H34.8306C34.7371 26.8905 33.9357 25.1557 32.5935 23.8904C31.0843 22.4616 29.0725 21.6857 26.9948 21.7311C25.4898 21.7311 21.8418 22.0174 20.3286 23.2974C20.255 23.0111 18.566 21.9274 15.2779 21.9274H12.0061C12.6073 22.1237 12.9835 23.4119 12.9835 26.6428V43.5086C13.1308 43.5086 22.1117 41.4638 22.1117 41.4638C22.1117 41.4638 20.0669 40.7562 20.0914 37.8035V28.7326C20.1977 26.651 21.8541 25.3218 23.9071 25.3218C27.9681 25.3218 27.7636 29.935 27.7636 29.935V43.5168C27.9354 43.5372 27.9068 43.5168 36.8877 41.4719C36.8877 41.4719 34.8429 40.7644 34.8674 37.8117" fill="#FCF5F4"/>
<path d="M59.3441 37.8608V31.489C59.1887 28.6263 59.1356 26.4097 57.148 24.5366C55.1604 22.6635 52.5348 21.6166 49.3244 21.3589C47.6068 21.224 43.513 21.2444 41.2228 22.7903C40.752 23.1028 40.3522 23.5108 40.0493 23.9878C39.7463 24.4648 39.547 25.0001 39.4642 25.559C39.3823 25.9767 39.4004 26.4079 39.517 26.8173C39.6335 27.2267 39.8453 27.6027 40.1349 27.9147C40.7396 28.5299 41.5588 28.8875 42.421 28.9125C42.8121 28.9694 43.2107 28.9418 43.5902 28.8318C43.9697 28.7217 44.3213 28.5317 44.6213 28.2746C45.2043 27.7499 45.6292 27.0728 45.8482 26.3197C45.8482 26.3197 46.6661 22.9743 49.2712 23.506C51.1525 23.8945 51.8968 25.7103 51.9663 26.8023L52.1667 30.483C52.1728 30.5884 52.1505 30.6934 52.102 30.7872C52.0536 30.881 51.9808 30.96 51.8913 31.016C51.8019 31.0721 51.699 31.103 51.5935 31.1056C51.488 31.1083 51.3837 31.0825 51.2915 31.031C50.0974 30.3685 48.0198 29.7182 44.4495 29.9063C38.9857 30.1967 37.5584 34.5359 37.7506 36.961C37.8172 37.8759 38.073 38.767 38.5017 39.578C38.9304 40.3889 39.5227 41.1021 40.2412 41.6723C41.8223 43.0193 43.871 43.688 45.9423 43.5331C47.4432 43.4514 51.0748 42.9729 52.5185 41.6151C53.5245 43.2796 56.8903 43.345 56.8903 43.345H60.8982C60.5833 43.345 59.3727 41.795 59.34 37.8853L59.3441 37.8608ZM48.8377 39.7911C44.7808 40.0078 43.6888 38.1552 43.5784 36.0695C43.4925 34.4336 44.883 32.217 48.212 32.0411C50.3959 31.9225 51.6801 32.7119 52.3017 33.2681L52.4571 36.184C52.4571 38.2697 50.8744 39.6848 48.8255 39.7911" fill="#FCF5F4"/>
<path d="M34.7406 6.59927L30.4751 5.96537C30.3996 5.95364 30.328 5.92417 30.2662 5.87938C30.2043 5.83458 30.154 5.77576 30.1193 5.70772L28.2258 1.8348C28.1873 1.75528 28.1271 1.68822 28.0523 1.6413C27.9774 1.59437 27.8908 1.56949 27.8025 1.56949C27.7141 1.56949 27.6276 1.59437 27.5527 1.6413C27.4779 1.68822 27.4177 1.75528 27.3792 1.8348L25.4571 5.69136C25.4235 5.76024 25.3735 5.81978 25.3114 5.86472C25.2493 5.90966 25.1772 5.93861 25.1013 5.94901L20.8316 6.55428C20.7629 6.56656 20.6974 6.59302 20.6394 6.63199C19.9564 6.61154 19.2653 6.63199 18.566 6.66471C7.93279 7.3804 -0.622817 15.8992 0.0356216 25.6531C0.214087 28.0469 0.898796 30.3755 2.04445 32.4849C3.1901 34.5943 4.77058 36.4364 6.68135 37.8894C6.73196 37.9275 6.79483 37.9456 6.85794 37.9402C6.92106 37.9349 6.98 37.9065 7.0235 37.8605C7.067 37.8144 7.09203 37.754 7.09379 37.6907C7.09556 37.6274 7.07393 37.5656 7.03306 37.5172C4.74576 34.8794 3.37788 31.5695 3.1356 28.0864C2.52624 19.0891 11.364 9.30664 23.678 11.3883L23.036 15.0444C23.0203 15.1313 23.0295 15.2207 23.0622 15.3026C23.095 15.3845 23.1502 15.4555 23.2214 15.5075C23.2926 15.5596 23.3771 15.5905 23.465 15.5969C23.553 15.6032 23.641 15.5847 23.7189 15.5434L27.5428 13.5517C27.6107 13.5176 27.6856 13.4998 27.7616 13.4998C27.8376 13.4998 27.9125 13.5176 27.9804 13.5517L31.7879 15.572C31.8656 15.6141 31.9536 15.6334 32.0418 15.6277C32.13 15.6221 32.2148 15.5917 32.2866 15.54C32.3583 15.4884 32.414 15.4175 32.4473 15.3357C32.4806 15.2538 32.4902 15.1642 32.4749 15.0772L31.7633 10.828C31.7518 10.7537 31.7584 10.6777 31.7826 10.6064C31.8069 10.5352 31.8479 10.4709 31.9024 10.419L34.9983 7.42129C35.0642 7.36023 35.1114 7.28172 35.1344 7.19489C35.1574 7.10805 35.1553 7.01647 35.1283 6.93078C35.1013 6.8451 35.0506 6.76884 34.9819 6.71088C34.9133 6.65291 34.8296 6.61563 34.7406 6.60336" fill="#FCF5F4"/>
</g>
<defs>
<clipPath id="clip0_1_774">
<rect width="97.9989" height="43.5551" fill="white"/>
</clipPath>
</defs>
</svg>
