<svg width="446" height="100" viewBox="0 0 446 100" fill="none" xmlns="http://www.w3.org/2000/svg">
<path d="M29.9442 81.0787C21.2536 81.0787 14.3473 79.1794 9.22503 75.3809C4.1028 71.5249 1.36903 65.6257 1.02371 57.6833C0.966154 56.1294 0.937378 53.597 0.937378 50.0863C0.937378 46.518 0.966154 43.9281 1.02371 42.3166C1.36903 34.6045 4.16036 28.7916 9.39769 24.878C14.635 20.9068 21.4839 18.9213 29.9442 18.9213C35.124 18.9213 39.8721 19.6982 44.1886 21.2522C48.5626 22.8061 52.1021 25.2521 54.8071 28.5902C57.5697 31.8707 58.9797 36.0146 59.0373 41.0217C59.0373 41.5397 58.8359 42.0001 58.433 42.403C58.0877 42.7483 57.656 42.9209 57.138 42.9209L39.5268 42.9209C38.6059 42.9209 37.9153 42.7483 37.4549 42.403C37.052 42.0576 36.6779 41.3958 36.3326 40.4174C35.6995 38.6908 34.865 37.4822 33.829 36.7915C32.7931 36.1009 31.4693 35.7556 29.8578 35.7556C27.8435 35.7556 26.2896 36.3023 25.196 37.3958C24.1025 38.4318 23.527 40.2159 23.4694 42.7483C23.4119 44.3022 23.3831 46.6907 23.3831 49.9136C23.3831 53.1366 23.4119 55.5826 23.4694 57.2517C23.527 59.784 24.1025 61.5969 25.196 62.6904C26.2896 63.7264 27.8435 64.2444 29.8578 64.2444C33.1384 64.2444 35.2966 62.6904 36.3326 59.5826C36.6203 58.6042 36.9657 57.9423 37.3685 57.597C37.829 57.2517 38.5484 57.079 39.5268 57.079L57.138 57.079C57.656 57.079 58.0877 57.2805 58.433 57.6833C58.8359 58.0286 59.0373 58.4603 59.0373 58.9783C58.9797 63.9854 57.5697 68.158 54.8071 71.4961C52.1021 74.7766 48.5626 77.1938 44.1886 78.7478C39.8721 80.3017 35.124 81.0787 29.9442 81.0787Z" fill="#FFF3F6"/>
<path d="M68.2227 80.2154C67.5896 80.2154 67.0428 80.0139 66.5824 79.6111C66.122 79.1507 65.8918 78.5751 65.8918 77.8845L65.8918 22.1155C65.8918 21.4824 66.122 20.9356 66.5824 20.4752C67.0428 20.0148 67.5896 19.7846 68.2227 19.7846L85.1433 19.7846C85.7764 19.7846 86.3231 20.0148 86.7836 20.4752C87.244 20.9356 87.4742 21.4824 87.4742 22.1155L87.4742 40.2447L101.46 40.2447L101.46 22.1155C101.46 21.4824 101.69 20.9356 102.15 20.4752C102.611 20.0148 103.157 19.7846 103.791 19.7846L120.711 19.7846C121.344 19.7846 121.891 20.0148 122.351 20.4752C122.812 20.9356 123.042 21.4824 123.042 22.1155L123.042 77.8845C123.042 78.5176 122.812 79.0643 122.351 79.5247C121.891 79.9852 121.344 80.2154 120.711 80.2154L103.791 80.2154C103.157 80.2154 102.611 79.9852 102.15 79.5247C101.69 79.0643 101.46 78.5176 101.46 77.8845L101.46 59.2373L87.4742 59.2373L87.4742 77.8845C87.4742 78.5176 87.244 79.0643 86.7836 79.5247C86.3231 79.9852 85.7764 80.2154 85.1433 80.2154L68.2227 80.2154Z" fill="#FFF3F6"/>
<path d="M134.909 80.2154C134.276 80.2154 133.729 79.9852 133.269 79.5247C132.808 79.0643 132.578 78.5176 132.578 77.8845L132.578 22.1155C132.578 21.4824 132.808 20.9356 133.269 20.4752C133.729 20.0148 134.276 19.7846 134.909 19.7846L152.52 19.7846C153.153 19.7846 153.7 20.0148 154.161 20.4752C154.621 20.9356 154.851 21.4824 154.851 22.1155L154.851 77.8845C154.851 78.5176 154.621 79.0643 154.161 79.5247C153.7 79.9852 153.153 80.2154 152.52 80.2154L134.909 80.2154Z" fill="#FFF3F6"/>
<path d="M166.693 80.2154C166.059 80.2154 165.513 79.9852 165.052 79.5247C164.592 79.0643 164.362 78.5176 164.362 77.8845L164.362 22.1155C164.362 21.4824 164.592 20.9356 165.052 20.4752C165.513 20.0148 166.059 19.7846 166.693 19.7846L192.85 19.7846C200.908 19.7846 207.239 21.5687 211.843 25.137C216.505 28.7053 218.836 33.9714 218.836 40.9354C218.836 47.8417 216.534 52.9927 211.929 56.3884C207.325 59.7265 200.965 61.3955 192.85 61.3955L186.807 61.3955L186.807 77.8845C186.807 78.5176 186.577 79.0643 186.117 79.5247C185.656 79.9852 185.11 80.2154 184.476 80.2154L166.693 80.2154ZM192.419 45.4245C193.455 45.4245 194.376 45.0504 195.181 44.3022C195.987 43.4965 196.39 42.3166 196.39 40.7627C196.39 39.439 196.073 38.2879 195.44 37.3095C194.807 36.3311 193.8 35.8419 192.419 35.8419L186.376 35.8419L186.376 45.4245L192.419 45.4245Z" fill="#FFF3F6"/>
<path d="M221.167 80.5607C220.533 80.5607 219.987 80.3305 219.526 79.8701C219.066 79.4096 218.836 78.8629 218.836 78.2298L218.836 69.2515C218.836 67.1796 219.555 65.6257 220.994 64.5897L221.944 63.8991L225.224 61.5682C231.67 56.9064 236.418 53.3956 239.468 51.0359C242.576 48.6187 244.994 46.4605 246.72 44.5612C248.447 42.6044 249.31 40.8778 249.31 39.3814C249.31 38.2879 249.109 37.4534 248.706 36.8778C248.36 36.2448 247.526 35.9282 246.202 35.9282C245.109 35.9282 244.245 36.1872 243.612 36.7052C242.979 37.1656 242.548 37.626 242.317 38.0865C242.145 38.5469 241.857 39.2951 241.454 40.331C241.166 41.0792 240.735 41.5972 240.159 41.885C239.584 42.1727 238.864 42.3166 238.001 42.3166L221.771 42.3166C221.253 42.3166 220.792 42.144 220.39 41.7986C220.044 41.3958 219.872 40.9353 219.872 40.4174C219.929 36.1584 221.109 32.4175 223.411 29.1945C225.713 25.914 228.821 23.3816 232.735 21.5975C236.706 19.8133 241.166 18.9213 246.116 18.9213C254.058 18.9213 260.331 20.6479 264.936 24.101C269.598 27.4967 271.928 32.216 271.928 38.2591C271.928 42.6907 270.375 46.7482 267.267 50.4316C264.216 54.0575 259.555 58.0286 253.281 62.3451L252.677 62.7768L270.892 62.7768C271.526 62.7768 272.072 63.007 272.533 63.4674C272.993 63.9278 273.223 64.4746 273.223 65.1077L273.223 78.2298C273.223 78.8629 272.993 79.4096 272.533 79.8701C272.072 80.3305 271.526 80.5607 270.892 80.5607L221.167 80.5607Z" fill="#FFF3F6"/>
<path fill-rule="evenodd" clip-rule="evenodd" d="M294.698 0.0893517C289.737 0.0893517 285.714 4.11149 285.714 9.07306L285.714 90.1795C285.714 95.1411 289.737 99.1633 294.698 99.1633L414.981 99.1633C417.409 99.1633 419.733 98.1806 421.425 96.4392L442.532 74.7103C444.161 73.0336 445.072 70.7882 445.072 68.4507L445.072 9.07307C445.072 4.1115 441.05 0.0893517 436.088 0.0893517L294.698 0.0893517ZM311.825 74.9783C316.889 78.9495 323.882 80.9351 332.803 80.9351C338.673 80.9351 343.824 80.043 348.256 78.2588C352.745 76.4171 356.227 73.7121 358.702 70.1438C361.234 66.5756 362.5 62.2591 362.5 57.1944L362.5 45.9715C362.5 45.3384 362.27 44.7917 361.81 44.3313C361.349 43.8708 360.802 43.6406 360.169 43.6406L336.429 43.6406C335.795 43.6406 335.249 43.8708 334.788 44.3313C334.328 44.7917 334.098 45.3384 334.098 45.9715L334.098 55.5541C334.098 56.1872 334.328 56.734 334.788 57.1944C335.249 57.6548 335.795 57.885 336.429 57.885L340.486 57.885V57.9714C340.486 60.1008 339.824 61.6548 338.5 62.6332C337.234 63.6116 335.45 64.1008 333.148 64.1008C328.659 64.1008 326.328 61.6548 326.155 56.7627C326.098 55.0937 326.069 52.6189 326.069 49.3384C326.069 46.0578 326.098 43.6406 326.155 42.0867C326.328 37.7702 328.544 35.6119 332.803 35.6119C334.069 35.6119 335.162 35.8422 336.083 36.3026C337.062 36.763 337.781 37.3098 338.242 37.9429C338.702 38.5184 338.961 38.8637 339.018 38.9788C339.536 39.6119 340.371 39.9284 341.522 39.9284L360.601 39.9284C361.119 39.9284 361.551 39.7558 361.896 39.4105C362.299 39.0076 362.5 38.5472 362.5 38.0292C362.385 34.5184 361.119 31.2955 358.702 28.3603C356.284 25.425 352.831 23.0941 348.342 21.3675C343.853 19.6409 338.673 18.7777 332.803 18.7777C324.055 18.7777 317.091 20.7345 311.911 24.6481C306.731 28.5041 303.997 34.1731 303.71 41.655C303.652 43.2665 303.623 45.8852 303.623 49.511C303.623 53.0793 303.652 55.6405 303.71 57.1944C304.055 65.0792 306.76 71.0071 311.825 74.9783ZM376.911 74.9783C382.033 78.9495 388.911 80.9351 397.544 80.9351C406.177 80.9351 413.055 78.9495 418.177 74.9783C423.299 71.0071 426.033 65.2231 426.378 57.626C426.493 54.5182 426.551 52.0146 426.551 50.1154C426.551 48.2161 426.493 45.655 426.378 42.432C426.205 37.4824 424.882 33.2235 422.407 29.6552C419.99 26.0869 416.652 23.3819 412.393 21.5402C408.134 19.6985 403.184 18.7777 397.544 18.7777C391.904 18.7777 386.954 19.6985 382.695 21.5402C378.436 23.3819 375.069 26.0869 372.595 29.6552C370.177 33.2235 368.882 37.4824 368.71 42.432C368.652 44.0435 368.624 46.6046 368.624 50.1154C368.624 53.5685 368.652 56.0721 368.71 57.626C369.055 65.2231 371.789 71.0071 376.911 74.9783ZM402.119 62.3742C401.026 63.5252 399.501 64.1008 397.544 64.1008C395.587 64.1008 394.033 63.5252 392.882 62.3742C391.789 61.2231 391.213 59.4677 391.156 57.1081C391.098 55.439 391.069 52.993 391.069 49.77C391.069 46.5471 391.098 44.1586 391.156 42.6047C391.213 40.245 391.817 38.4896 392.969 37.3385C394.12 36.1875 395.645 35.6119 397.544 35.6119C399.443 35.6119 400.968 36.1875 402.119 37.3385C403.271 38.4896 403.875 40.245 403.932 42.6047C404.047 45.7125 404.105 48.101 404.105 49.77C404.105 51.324 404.047 53.77 403.932 57.1081C403.875 59.4677 403.271 61.2231 402.119 62.3742Z" fill="#FFF3F6"/>
</svg>
