<svg width="282" height="64" viewBox="0 0 282 64" fill="none" xmlns="http://www.w3.org/2000/svg">
<path d="M18.3829 51.3261C12.8754 51.3261 8.49847 50.1225 5.25227 47.7152C2.00608 45.2714 0.273556 41.5328 0.0547111 36.4994C0.018237 35.5146 0 33.9097 0 31.6848C0 29.4234 0.018237 27.7821 0.0547111 26.7608C0.273556 21.8733 2.04255 18.1894 5.36169 15.7092C8.68084 13.1924 13.0213 11.9341 18.3829 11.9341C21.6656 11.9341 24.6747 12.4265 27.4103 13.4113C30.1823 14.3961 32.4255 15.9462 34.1398 18.0617C35.8905 20.1408 36.7841 22.7669 36.8206 25.9401C36.8206 26.2684 36.693 26.5602 36.4376 26.8155C36.2188 27.0344 35.9452 27.1438 35.617 27.1438L24.4559 27.1438C23.8723 27.1438 23.4346 27.0344 23.1428 26.8155C22.8875 26.5967 22.6504 26.1772 22.4316 25.5572C22.0304 24.4629 21.5015 23.697 20.845 23.2593C20.1884 22.8216 19.3495 22.6028 18.3282 22.6028C17.0516 22.6028 16.0668 22.9493 15.3738 23.6423C14.6808 24.2988 14.3161 25.4295 14.2796 27.0344C14.2431 28.0192 14.2249 29.5328 14.2249 31.5754C14.2249 33.6179 14.2431 35.1681 14.2796 36.2258C14.3161 37.8307 14.6808 38.9796 15.3738 39.6726C16.0668 40.3292 17.0516 40.6574 18.3282 40.6574C20.4073 40.6574 21.775 39.6726 22.4316 37.703C22.6139 37.083 22.8328 36.6635 23.0881 36.4447C23.3799 36.2258 23.8358 36.1164 24.4559 36.1164L35.617 36.1164C35.9452 36.1164 36.2188 36.2441 36.4376 36.4994C36.693 36.7182 36.8206 36.9918 36.8206 37.3201C36.7841 40.4933 35.8905 43.1377 34.1398 45.2532C32.4255 47.3322 30.1823 48.8641 27.4103 49.8489C24.6747 50.8337 21.6656 51.3261 18.3829 51.3261Z" fill="#142032"/>
<path d="M42.6418 50.779C42.2406 50.779 41.8941 50.6513 41.6023 50.396C41.3105 50.1042 41.1646 49.7395 41.1646 49.3018L41.1646 13.9584C41.1646 13.5572 41.3105 13.2107 41.6023 12.9189C41.8941 12.6271 42.2406 12.4812 42.6418 12.4812L53.3652 12.4812C53.7664 12.4812 54.1129 12.6271 54.4047 12.9189C54.6965 13.2107 54.8424 13.5572 54.8424 13.9584L54.8424 25.4477L63.7056 25.4477L63.7056 13.9584C63.7056 13.5572 63.8515 13.2107 64.1433 12.9189C64.4351 12.6271 64.7816 12.4812 65.1828 12.4812L75.9062 12.4812C76.3074 12.4812 76.6539 12.6271 76.9457 12.9189C77.2375 13.2107 77.3834 13.5572 77.3834 13.9584L77.3834 49.3018C77.3834 49.703 77.2375 50.0495 76.9457 50.3413C76.6539 50.6331 76.3074 50.779 75.9062 50.779L65.1828 50.779C64.7816 50.779 64.4351 50.6331 64.1433 50.3413C63.8515 50.0495 63.7056 49.703 63.7056 49.3018L63.7056 37.4842L54.8424 37.4842L54.8424 49.3018C54.8424 49.703 54.6965 50.0495 54.4047 50.3413C54.1129 50.6331 53.7664 50.779 53.3652 50.779L42.6418 50.779Z" fill="#142032"/>
<path d="M84.904 50.779C84.5028 50.779 84.1563 50.6331 83.8645 50.3413C83.5727 50.0495 83.4268 49.703 83.4268 49.3018L83.4268 13.9584C83.4268 13.5572 83.5727 13.2107 83.8645 12.9189C84.1563 12.6271 84.5028 12.4812 84.904 12.4812L96.0651 12.4812C96.4663 12.4812 96.8128 12.6271 97.1046 12.9189C97.3964 13.2107 97.5423 13.5572 97.5423 13.9584L97.5423 49.3018C97.5423 49.703 97.3964 50.0495 97.1046 50.3413C96.8128 50.6331 96.4663 50.779 96.0651 50.779L84.904 50.779Z" fill="#142032"/>
<path d="M105.047 50.779C104.645 50.779 104.299 50.6331 104.007 50.3413C103.715 50.0495 103.569 49.703 103.569 49.3018L103.569 13.9584C103.569 13.5572 103.715 13.2107 104.007 12.9189C104.299 12.6271 104.645 12.4812 105.047 12.4812L121.624 12.4812C126.731 12.4812 130.743 13.6119 133.661 15.8733C136.615 18.1347 138.092 21.4721 138.092 25.8854C138.092 30.2623 136.633 33.5268 133.715 35.6787C130.797 37.7942 126.767 38.852 121.624 38.852L117.794 38.852L117.794 49.3018C117.794 49.703 117.648 50.0495 117.357 50.3413C117.065 50.6331 116.718 50.779 116.317 50.779L105.047 50.779ZM121.351 28.7304C122.007 28.7304 122.591 28.4933 123.101 28.0192C123.612 27.5085 123.867 26.7608 123.867 25.776C123.867 24.9371 123.667 24.2076 123.266 23.5876C122.864 22.9675 122.226 22.6575 121.351 22.6575L117.521 22.6575L117.521 28.7304L121.351 28.7304Z" fill="#142032"/>
<path d="M139.569 50.9978C139.168 50.9978 138.822 50.852 138.53 50.5602C138.238 50.2684 138.092 49.9219 138.092 49.5206L138.092 43.8307C138.092 42.5176 138.548 41.5328 139.46 40.8763L140.062 40.4386L142.141 38.9614C146.226 36.007 149.235 33.7821 151.168 32.2866C153.138 30.7547 154.67 29.3869 155.764 28.1833C156.858 26.9432 157.405 25.849 157.405 24.9006C157.405 24.2076 157.278 23.6787 157.022 23.314C156.803 22.9128 156.275 22.7122 155.436 22.7122C154.743 22.7122 154.196 22.8763 153.794 23.2046C153.393 23.4964 153.12 23.7882 152.974 24.08C152.864 24.3718 152.682 24.8459 152.427 25.5025C152.244 25.9766 151.971 26.3049 151.606 26.4873C151.241 26.6696 150.785 26.7608 150.238 26.7608L139.952 26.7608C139.624 26.7608 139.332 26.6514 139.077 26.4325C138.858 26.1772 138.749 25.8854 138.749 25.5572C138.785 22.8581 139.533 20.4873 140.992 18.4447C142.451 16.3657 144.42 14.7608 146.901 13.6301C149.417 12.4994 152.244 11.9341 155.381 11.9341C160.414 11.9341 164.39 13.0283 167.308 15.2168C170.262 17.3687 171.74 20.3596 171.74 24.1894C171.74 26.9979 170.755 29.5693 168.785 31.9037C166.852 34.2015 163.898 36.7182 159.922 39.4538L159.539 39.7274L171.083 39.7274C171.484 39.7274 171.831 39.8732 172.123 40.165C172.414 40.4568 172.56 40.8033 172.56 41.2046L172.56 49.5206C172.56 49.9219 172.414 50.2684 172.123 50.5602C171.831 50.852 171.484 50.9978 171.083 50.9978L139.569 50.9978Z" fill="#F71962"/>
<path fill-rule="evenodd" clip-rule="evenodd" d="M186.17 -0.000732422C183.025 -0.000732422 180.476 2.54829 180.476 5.69266L180.476 57.0936C180.476 60.238 183.025 62.787 186.17 62.787L262.399 62.787C263.937 62.787 265.41 62.1643 266.482 61.0606L279.859 47.29C280.891 46.2274 281.469 44.8044 281.469 43.323L281.469 5.69266C281.469 2.54829 278.92 -0.000732422 275.775 -0.000732422L186.17 -0.000732422ZM197.024 47.4599C200.233 49.9766 204.665 51.2349 210.318 51.2349C214.039 51.2349 217.303 50.6696 220.112 49.5389C222.957 48.3717 225.163 46.6574 226.732 44.3961C228.337 42.1347 229.139 39.3991 229.139 36.1894L229.139 29.0769C229.139 28.6757 228.993 28.3292 228.701 28.0374C228.41 27.7456 228.063 27.5997 227.662 27.5997L212.616 27.5997C212.215 27.5997 211.869 27.7456 211.577 28.0374C211.285 28.3292 211.139 28.6757 211.139 29.0769L211.139 35.1499C211.139 35.5511 211.285 35.8976 211.577 36.1894C211.869 36.4812 212.215 36.6271 212.616 36.6271L215.188 36.6271V36.6818C215.188 38.0313 214.768 39.0161 213.929 39.6362C213.127 40.2562 211.996 40.5663 210.537 40.5663C207.692 40.5663 206.215 39.0161 206.106 35.9158C206.069 34.8581 206.051 33.2897 206.051 31.2107C206.051 29.1316 206.069 27.5997 206.106 26.6149C206.215 23.8794 207.619 22.5116 210.318 22.5116C211.121 22.5116 211.814 22.6575 212.398 22.9493C213.018 23.2411 213.473 23.5876 213.765 23.9888C214.057 24.3535 214.221 24.5724 214.258 24.6453C214.586 25.0465 215.115 25.2471 215.844 25.2471L227.935 25.2471C228.264 25.2471 228.537 25.1377 228.756 24.9189C229.011 24.6636 229.139 24.3718 229.139 24.0435C229.066 21.8186 228.264 19.776 226.732 17.9158C225.2 16.0557 223.011 14.5785 220.166 13.4842C217.322 12.39 214.039 11.8429 210.318 11.8429C204.774 11.8429 200.361 13.083 197.078 15.5633C193.796 18.007 192.063 21.5997 191.881 26.3414C191.844 27.3626 191.826 29.0222 191.826 31.3201C191.826 33.5815 191.844 35.2046 191.881 36.1894C192.1 41.1863 193.814 44.9432 197.024 47.4599ZM238.272 47.4599C241.518 49.9766 245.877 51.2349 251.348 51.2349C256.819 51.2349 261.178 49.9766 264.424 47.4599C267.67 44.9432 269.403 41.2775 269.622 36.4629C269.694 34.4933 269.731 32.9067 269.731 31.7031C269.731 30.4994 269.694 28.8763 269.622 26.8338C269.512 23.697 268.673 20.9979 267.105 18.7365C265.573 16.4751 263.457 14.7608 260.758 13.5937C258.059 12.4265 254.922 11.8429 251.348 11.8429C247.774 11.8429 244.637 12.4265 241.938 13.5937C239.239 14.7608 237.105 16.4751 235.536 18.7365C234.005 20.9979 233.184 23.697 233.074 26.8338C233.038 27.855 233.02 29.4781 233.02 31.7031C233.02 33.8915 233.038 35.4781 233.074 36.4629C233.293 41.2775 235.026 44.9432 238.272 47.4599ZM254.248 39.472C253.555 40.2015 252.588 40.5663 251.348 40.5663C250.108 40.5663 249.123 40.2015 248.394 39.472C247.701 38.7426 247.336 37.6301 247.299 36.1347C247.263 35.0769 247.245 33.5268 247.245 31.4842C247.245 29.4417 247.263 27.928 247.299 26.9432C247.336 25.4478 247.719 24.3353 248.448 23.6058C249.178 22.8763 250.144 22.5116 251.348 22.5116C252.552 22.5116 253.518 22.8763 254.248 23.6058C254.977 24.3353 255.36 25.4478 255.397 26.9432C255.47 28.9128 255.506 30.4265 255.506 31.4842C255.506 32.469 255.47 34.0192 255.397 36.1347C255.36 37.6301 254.977 38.7426 254.248 39.472Z" fill="#F71962"/>
</svg>
