<svg width="200" height="50" viewBox="0 0 757 138" fill="none" xmlns="http://www.w3.org/2000/svg">
<path d="M644.198 62.0865C639.535 68.3812 632.087 72.459 623.709 72.459C609.625 72.459 598.16 60.929 598.16 46.7458C598.16 32.5627 609.616 21.0327 623.709 21.0327C632.087 21.0327 639.535 25.1194 644.198 31.4052L663.536 24.692C655.787 10.5712 640.845 0.982178 623.709 0.982178C598.638 0.982178 578.246 21.5046 578.246 46.7369C578.246 71.9693 598.638 92.4917 623.709 92.4917C640.836 92.4917 655.787 82.9027 663.536 68.7818L644.198 62.0687V62.0865Z" fill="white"/>
<path d="M475.848 92.5095C450.776 92.5095 430.385 71.9871 430.385 46.7547C430.385 21.5224 450.785 0.999985 475.848 0.999985C500.91 0.999985 521.31 21.5224 521.31 46.7547C521.31 71.9871 500.919 92.5095 475.848 92.5095ZM475.848 21.0505C461.764 21.0505 450.299 32.5805 450.299 46.7637C450.299 60.9468 461.755 72.4768 475.848 72.4768C489.94 72.4768 501.396 60.9468 501.396 46.7637C501.396 32.5805 489.94 21.0505 475.848 21.0505Z" fill="white"/>
<path d="M346.29 4.44561L321.838 59.8962V4.44561H298.492L274.031 59.8962V4.44561H254.117V89.0372H282.966L301.915 46.087V89.0372H330.773L359.303 24.3448H365.956V4.44561H346.29Z" fill="white"/>
<path d="M547.752 89.055H527.839V4.45452H579.034V24.4962H547.752V89.055Z" fill="white"/>
<path d="M202.144 92.5095C177.073 92.5095 156.681 71.9871 156.681 46.7547C156.681 21.5224 177.082 0.999985 202.144 0.999985C227.206 0.999985 247.606 21.5224 247.606 46.7547C247.606 71.9871 227.215 92.5095 202.144 92.5095ZM202.144 21.0505C188.06 21.0505 176.595 32.5805 176.595 46.7637C176.595 60.9468 188.051 72.4768 202.144 72.4768C216.236 72.4768 227.693 60.9468 227.693 46.7637C227.693 32.5805 216.236 21.0505 202.144 21.0505Z" fill="white"/>
<path d="M96.4098 4.45452H45.4625C20.3913 4.45452 0 24.9769 0 50.2093C0 75.4416 20.3913 95.9641 45.4625 95.9641C49.1072 95.9641 52.6459 95.5278 56.0429 94.7087L15.1099 119.905L25.5046 137.009L94.5697 94.495L84.175 77.3915L79.9286 80.0002C86.7759 71.9871 90.9161 61.579 90.9161 50.2093C90.9161 40.6826 88.0056 31.8326 83.0426 24.4962H96.4009V4.45452H96.4098ZM71.0113 50.2093C71.0113 64.3835 59.555 75.9224 45.4625 75.9224C31.3699 75.9224 19.9136 64.3925 19.9136 50.2093C19.9136 36.0261 31.3699 24.4962 45.4625 24.4962C59.555 24.4962 71.0113 36.0261 71.0113 50.2093Z" fill="white"/>
<path d="M125.347 89.055H105.424V4.45452H156.628V24.4962H125.347V89.055Z" fill="white"/>
<path d="M430.819 24.4962V4.45452H373.909V37.2459H365.956V57.2964H373.909V89.055H393.831V57.2964H419.406V37.2459H393.831V24.4962H430.819Z" fill="white"/>
<path d="M732.017 62.0865C727.355 68.3812 719.915 72.4679 711.529 72.4679C700.417 72.4679 690.952 65.2917 687.44 55.311H756.186C756.708 52.542 756.982 49.684 756.982 46.7547C756.982 21.5224 736.591 0.999985 711.52 0.999985C686.449 0.999985 666.057 21.5224 666.057 46.7547C666.057 71.9871 686.449 92.5095 711.52 92.5095C728.647 92.5095 743.597 82.9205 751.347 68.7997L732.009 62.0865H732.017ZM711.529 21.0416C721.508 21.0416 730.168 26.8378 734.371 35.2604H688.687C692.889 26.8378 701.541 21.0416 711.529 21.0416Z" fill="white"/>
</svg>
