<svg width="81" height="81" viewBox="0 0 81 81" fill="none" xmlns="http://www.w3.org/2000/svg">
<mask id="mask0_206_9500" style="mask-type:alpha" maskUnits="userSpaceOnUse" x="0" y="0" width="81" height="81">
<rect x="0.990234" y="0.500122" width="80" height="80" fill="white"/>
</mask>
<g mask="url(#mask0_206_9500)">
<path fill-rule="evenodd" clip-rule="evenodd" d="M66.3576 57.0833C66.3576 57.0818 66.3576 57.0803 66.3576 57.0788C66.3576 57.0773 66.3575 57.0758 66.3575 57.0743C66.3557 56.7977 66.4515 56.5606 66.6449 56.3628C66.8383 56.1651 67.0733 56.0641 67.3498 56.0598L69.8995 56.02L69.795 40.2101L61.5326 26.0593L52.5031 26.1189L52.7014 56.1333L55.4126 56.1386C55.6892 56.1392 55.9256 56.237 56.1217 56.4322C56.3178 56.6274 56.4167 56.8633 56.4186 57.14C56.4186 57.1414 56.4186 57.1428 56.4186 57.1443C56.4186 57.1457 56.4186 57.1472 56.4186 57.1486C56.4183 57.2823 56.3925 57.4108 56.3411 57.5342C56.2897 57.6576 56.2166 57.7665 56.1219 57.8608C56.0272 57.9551 55.9181 58.0277 55.7945 58.0787C55.6709 58.1296 55.5423 58.1549 55.4086 58.1546L51.6981 58.1473C51.4214 58.1467 51.185 58.0489 50.9889 57.8537C50.7929 57.6585 50.6939 57.4226 50.6921 57.146L50.4805 25.1243C50.4787 24.8459 50.5755 24.6077 50.771 24.4096C50.9665 24.2114 51.2035 24.1115 51.4818 24.1096L62.1024 24.0395C62.2827 24.0383 62.4513 24.0823 62.608 24.1716C62.7647 24.2609 62.8886 24.3834 62.9795 24.5392L71.6717 39.4261C71.7161 39.5022 71.75 39.5828 71.7733 39.6678C71.7966 39.7529 71.8086 39.8395 71.8092 39.9277L71.922 57.0057C71.9238 57.2823 71.8281 57.5194 71.6347 57.7172C71.4413 57.9149 71.2063 58.0159 70.9297 58.0202L67.3812 58.0755C67.2476 58.0776 67.1186 58.054 66.9943 58.0048C66.8701 57.9556 66.7599 57.8844 66.6639 57.7914C66.568 57.6984 66.4934 57.5905 66.4404 57.4678C66.3873 57.3451 66.3597 57.217 66.3576 57.0833Z" fill="#09B39C"/>
<path fill-rule="evenodd" clip-rule="evenodd" d="M65.0022 29.985C65.0391 29.963 65.0745 29.9388 65.1083 29.9123C65.1421 29.8858 65.174 29.8573 65.2042 29.8268C65.2981 29.7316 65.3702 29.6221 65.4205 29.4983C65.4709 29.3745 65.4956 29.2457 65.4947 29.1121C65.4929 28.8337 65.3929 28.5968 65.1948 28.4013C64.9967 28.2057 64.7584 28.1089 64.4801 28.1107L56.7396 28.1619C56.4613 28.1637 56.2243 28.2637 56.0288 28.4618C55.8333 28.6599 55.7365 28.8982 55.7383 29.1765L55.8087 39.8286C55.8105 40.107 55.9105 40.3439 56.1086 40.5394C56.3067 40.7349 56.545 40.8318 56.8233 40.8299L70.8075 40.7375C71.0858 40.7357 71.3228 40.6357 71.5183 40.4376C71.7138 40.2395 71.8107 40.0012 71.8088 39.7229C71.807 39.4445 71.707 39.2076 71.5089 39.0121C71.3108 38.8166 71.0725 38.7197 70.7942 38.7216L70.2034 38.7255L57.818 38.8073L57.7609 30.1712L64.4934 30.1267C64.583 30.1261 64.671 30.1138 64.7573 30.0897C64.8436 30.0657 64.9252 30.0308 65.0022 29.985Z" fill="#09B39C"/>
<path fill-rule="evenodd" clip-rule="evenodd" d="M70.8487 47.3056L51.6344 47.4656C51.356 47.4679 51.1193 47.5683 50.9241 47.7667C50.7289 47.9652 50.6325 48.2036 50.6348 48.4819C50.6371 48.7603 50.7375 48.997 50.936 49.1922C51.1344 49.3874 51.3728 49.4838 51.6512 49.4815L70.8655 49.3215C70.9991 49.3204 71.1275 49.2938 71.2506 49.2416C71.3736 49.1894 71.482 49.1157 71.5757 49.0204C71.6695 48.925 71.7414 48.8154 71.7915 48.6915C71.8416 48.5676 71.8661 48.4388 71.865 48.3052C71.8627 48.0268 71.7623 47.7901 71.5639 47.5949C71.3654 47.3997 71.127 47.3033 70.8487 47.3056Z" fill="#09B39C"/>
<path fill-rule="evenodd" clip-rule="evenodd" d="M25.7147 57.3441L25.7147 57.3428C25.7129 57.0648 25.8096 56.8267 26.0048 56.6286C26.2 56.4305 26.4367 56.3304 26.7148 56.3282L50.6865 56.1393L50.4816 25.1243L50.4459 19.7276L11.8996 19.9823L12.1402 56.4023L14.4524 56.4093C14.7289 56.4101 14.965 56.5081 15.1609 56.7032C15.3567 56.8984 15.4555 57.1342 15.4574 57.4106C15.4574 57.4122 15.4574 57.4139 15.4574 57.4155C15.4574 57.4171 15.4574 57.4187 15.4574 57.4203C15.457 57.554 15.431 57.6825 15.3795 57.8058C15.328 57.9292 15.2548 58.038 15.16 58.1322C15.0652 58.2264 14.956 58.2989 14.8323 58.3497C14.7087 58.4005 14.58 58.4257 14.4463 58.4253L11.1358 58.4153C10.8594 58.4145 10.6232 58.3165 10.4274 58.1213C10.2315 57.9262 10.1327 57.6904 10.1309 57.414L9.87698 18.9876C9.87514 18.7093 9.97198 18.471 10.1675 18.2729C10.363 18.0748 10.6 17.9748 10.8783 17.973L51.4406 17.705C51.719 17.7031 51.9572 17.8 52.1553 17.9955C52.3534 18.191 52.4534 18.428 52.4552 18.7063L52.4976 25.111L52.7091 57.1326C52.711 57.4107 52.6143 57.6488 52.4191 57.8469C52.2238 58.045 51.9872 58.1451 51.7091 58.1473L26.7307 58.3442C26.4523 58.3463 26.214 58.2498 26.0156 58.0545C25.8172 57.8593 25.7169 57.6225 25.7147 57.3441Z" fill="#405188"/>
<path fill-rule="evenodd" clip-rule="evenodd" d="M50.8328 24.1132L11.474 24.3732C11.1957 24.3751 10.9587 24.4751 10.7632 24.6732C10.5677 24.8713 10.4708 25.1095 10.4727 25.3879C10.4745 25.6662 10.5745 25.9031 10.7726 26.0987C10.9707 26.2942 11.209 26.391 11.4873 26.3892L50.8461 26.1291C50.9798 26.1283 51.1082 26.1018 51.2314 26.0499C51.3545 25.9979 51.463 25.9243 51.5569 25.8292C51.6508 25.7341 51.7229 25.6246 51.7733 25.5007C51.8236 25.3769 51.8483 25.2482 51.8475 25.1145C51.8456 24.8362 51.7456 24.5992 51.5475 24.4037C51.3494 24.2082 51.1112 24.1113 50.8328 24.1132Z" fill="#405188"/>
<path fill-rule="evenodd" clip-rule="evenodd" d="M50.9891 47.4367L11.6303 47.6967C11.3519 47.6986 11.115 47.7985 10.9195 47.9967C10.7239 48.1948 10.6271 48.433 10.6289 48.7114C10.6308 48.9897 10.7308 49.2266 10.9289 49.4222C11.127 49.6177 11.3652 49.7145 11.6436 49.7127L51.0024 49.4526C51.1361 49.4517 51.2645 49.4253 51.3876 49.3734C51.5108 49.3214 51.6193 49.2478 51.7132 49.1527C51.8071 49.0575 51.8792 48.9481 51.9295 48.8242C51.9799 48.7004 52.0046 48.5717 52.0037 48.438C52.0019 48.1596 51.9019 47.9227 51.7038 47.7272C51.5056 47.5317 51.2674 47.4348 50.9891 47.4367Z" fill="#405188"/>
<path fill-rule="evenodd" clip-rule="evenodd" d="M62.5971 57.2225C62.5971 57.9355 62.0043 58.5136 61.2731 58.5136C60.5419 58.5136 59.9492 57.9355 59.9492 57.2225C59.9492 56.5096 60.5419 55.9315 61.2731 55.9315C62.0043 55.9315 62.5971 56.5096 62.5971 57.2225Z" fill="#09B39C"/>
<path fill-rule="evenodd" clip-rule="evenodd" d="M67.4427 57.2225C67.4427 58.8956 66.8374 60.3225 65.6266 61.503C64.423 62.6766 62.9719 63.2634 61.2731 63.2634C59.5744 63.2634 58.1232 62.6766 56.9196 61.503C55.7089 60.3225 55.1035 58.8956 55.1035 57.2225C55.1035 55.5493 55.7089 54.1225 56.9196 52.9419C58.1232 51.7683 59.5744 51.1815 61.2731 51.1815C62.9719 51.1815 64.423 51.7683 65.6266 52.9419C66.8374 54.1225 67.4427 55.5493 67.4427 57.2225ZM65.4263 57.2223C65.4263 56.1158 65.0238 55.1701 64.2188 54.3852C63.4067 53.5933 62.4247 53.1974 61.2727 53.1974C60.1208 53.1974 59.1387 53.5933 58.3266 54.3852C57.5216 55.1701 57.1191 56.1158 57.1191 57.2223C57.1191 58.3288 57.5216 59.2746 58.3266 60.0595C59.1387 60.8514 60.1208 61.2473 61.2727 61.2473C62.4247 61.2473 63.4067 60.8514 64.2188 60.0595C65.0238 59.2746 65.4263 58.3288 65.4263 57.2223Z" fill="#09B39C"/>
<path fill-rule="evenodd" clip-rule="evenodd" d="M26.638 57.2225C26.638 58.8956 26.0327 60.3225 24.822 61.503C23.6184 62.6766 22.1672 63.2634 20.4684 63.2634C18.7697 63.2634 17.3185 62.6766 16.1149 61.503C14.9042 60.3225 14.2988 58.8956 14.2988 57.2225C14.2988 55.5493 14.9042 54.1225 16.1149 52.9419C17.3185 51.7683 18.7697 51.1815 20.4684 51.1815C22.1672 51.1815 23.6184 51.7683 24.822 52.9419C26.0327 54.1225 26.638 55.5493 26.638 57.2225ZM24.6217 57.2223C24.6217 56.1158 24.2192 55.1701 23.4142 54.3852C22.6021 53.5933 21.62 53.1974 20.4681 53.1974C19.3161 53.1974 18.3341 53.5933 17.5219 54.3852C16.717 55.1701 16.3145 56.1158 16.3145 57.2223C16.3145 58.3288 16.717 59.2746 17.5219 60.0595C18.3341 60.8514 19.3161 61.2473 20.4681 61.2473C21.62 61.2473 22.6021 60.8514 23.4142 60.0595C24.2192 59.2746 24.6217 58.3288 24.6217 57.2223Z" fill="#09B39C"/>
<path fill-rule="evenodd" clip-rule="evenodd" d="M21.7926 57.2225C21.7926 57.9355 21.1997 58.5136 20.4685 58.5136C19.7374 58.5136 19.1445 57.9355 19.1445 57.2225C19.1445 56.5096 19.7374 55.9315 20.4685 55.9315C21.1997 55.9315 21.7926 56.5096 21.7926 57.2225Z" fill="#09B39C"/>
</g>
</svg>
