<svg width="375" height="812" viewBox="0 0 375 812" fill="none" xmlns="http://www.w3.org/2000/svg">
<g clip-path="url(#clip0_257_33281)">
<path d="M110.743 -300.506L111.065 -300.077C166.548 -209.288 137.894 -90.2745 47.1051 -34.7922C-43.6841 20.6901 -162.697 -7.96326 -218.18 -98.7525L-218.502 -99.1817L-207.985 -105.621L-207.663 -105.191C-155.722 -20.1973 -44.2207 6.63171 40.6662 -45.3092C125.553 -97.2501 152.489 -208.644 100.441 -293.638L100.119 -294.067L110.743 -300.506ZM-9.66501 -12.4705C9.86649 -17.0851 28.8614 -24.8119 46.4612 -35.6508C136.607 -90.8111 165.153 -208.859 110.314 -299.111L101.622 -293.745C153.562 -208.322 126.519 -96.6062 41.2028 -44.3434C-44.1134 7.81216 -155.937 -19.0168 -208.307 -104.118L-216.999 -98.7525C-190.278 -55.2896 -148.21 -24.7045 -98.5225 -12.7924C-68.9034 -5.60229 -38.533 -5.60229 -9.66501 -12.4705Z" fill="#ECB9B3"/>
<path d="M531.744 115.88L531.207 115.987C429.042 145.713 321.726 86.797 292 -15.3677C262.273 -117.532 321.19 -224.848 423.355 -254.575L423.891 -254.682L427.325 -242.877L426.789 -242.77C331.277 -214.975 276.117 -114.528 303.912 -18.8018C331.707 76.8167 432.154 131.977 527.88 104.182L528.417 104.075L531.744 115.88ZM285.454 -76.0012C284.81 -55.9331 287.278 -35.6504 293.073 -15.6897C322.585 85.7238 429.042 144.318 530.456 115.128L527.558 105.255C431.511 132.943 330.741 77.4605 302.839 -18.5872C274.937 -114.635 330.204 -215.512 426.037 -243.629L423.14 -253.502C374.097 -239.121 333.638 -206.497 309.063 -161.747C294.468 -134.918 286.419 -105.62 285.454 -76.0012Z" fill="#ECB9B3"/>
<path d="M528.631 105.041L528.095 105.148C431.94 133.157 330.848 77.675 302.839 -18.5873C289.317 -65.1624 294.683 -114.206 318.078 -156.81C341.472 -199.415 379.999 -230.322 426.467 -243.843L427.003 -243.951L430.437 -232.146L429.901 -232.039C340.399 -205.854 288.673 -111.63 314.751 -22.0214L314.214 -21.9141L314.751 -22.0214C340.829 67.6946 435.052 119.421 524.661 93.3431L525.197 93.2358L528.631 105.041ZM296.829 -75.2501C296.185 -56.6845 298.439 -37.6895 303.912 -18.802C331.707 76.7092 431.832 131.87 527.344 104.289L524.446 94.4163C434.408 120.279 339.863 68.3385 313.678 -21.6995C287.493 -111.738 339.326 -206.39 429.257 -232.79L426.359 -242.663C349.843 -220.127 299.405 -151.015 296.829 -75.2501Z" fill="#ECB9B3"/>
<path d="M525.519 94.2017L524.983 94.309C434.73 120.601 339.97 68.5532 313.785 -21.6994C287.493 -111.952 339.541 -206.712 429.793 -232.897L430.33 -233.004L433.764 -221.2L433.228 -221.092C349.521 -196.732 301.229 -108.84 325.59 -25.1335C337.395 15.3246 364.223 48.8071 401.355 69.1971C438.379 89.5871 481.09 94.309 521.549 82.5043L522.085 82.3969L525.519 94.2017ZM314.214 -21.8068L314.751 -21.9141C340.829 67.5874 434.623 119.314 524.231 93.5578L521.334 83.6848C480.769 95.3822 437.949 90.553 400.818 70.163C363.472 49.6656 336.429 15.9684 324.624 -24.8116C300.156 -108.947 348.555 -197.161 432.476 -221.951L429.579 -231.824C340.185 -205.532 288.673 -111.523 314.751 -22.0214L314.214 -21.8068Z" fill="#ECB9B3"/>
<path d="M522.3 83.3627L521.763 83.47C480.983 95.2747 438.057 90.5529 400.711 70.0555C363.365 49.5582 336.321 15.861 324.517 -24.919C300.049 -109.162 348.555 -197.698 432.906 -222.166L433.442 -222.273L436.876 -210.468L436.34 -210.361C358.643 -187.717 313.785 -106.05 336.429 -28.3531L335.892 -28.2458L336.429 -28.3531C359.072 49.3436 440.74 94.2016 518.437 71.5579L518.973 71.4507L522.3 83.3627ZM319.366 -74.499C318.829 -58.187 320.761 -41.553 325.59 -25.1337C337.395 15.3244 364.224 48.807 401.355 69.197C438.272 89.4797 480.769 94.2016 521.119 82.6115L518.222 72.7384C440.096 95.1674 358.214 50.0948 335.463 -28.0312C312.712 -106.157 357.677 -188.146 435.589 -211.112L432.691 -220.985C365.726 -201.239 321.619 -140.82 319.366 -74.499Z" fill="#ECB9B3"/>
<path d="M519.187 72.5238L518.651 72.631C440.418 95.382 358.106 50.2021 335.355 -28.0312C312.604 -106.265 357.784 -188.576 436.018 -211.327L436.554 -211.434L439.988 -199.629L439.452 -199.522C367.657 -178.595 326.234 -103.26 347.16 -31.4654C357.248 3.19766 380.321 31.9584 412.086 49.4508C443.852 66.9433 480.446 70.914 515.217 60.8263L515.753 60.719L519.187 72.5238ZM335.892 -28.1386L336.429 -28.2459C358.965 49.3435 440.31 94.0942 517.9 71.8799L515.002 62.0068C480.125 71.9872 443.53 67.9092 411.657 50.4167C379.677 32.8169 356.389 3.8416 346.194 -31.0361C325.16 -103.152 366.692 -178.917 438.701 -200.166L435.803 -210.039C358.321 -187.181 313.785 -105.728 336.321 -28.1386H335.892Z" fill="#ECB9B3"/>
<path d="M516.076 61.6853L515.539 61.7926C443.208 82.9339 367.228 41.188 346.195 -31.1429C325.161 -103.474 366.906 -179.453 439.237 -200.487L439.774 -200.595L443.208 -188.79L442.672 -188.683C376.887 -169.58 338.897 -100.469 358.107 -34.6844C377.209 31.1003 446.32 69.0901 512.105 49.8806L512.641 49.7732L516.076 61.6853ZM341.902 -73.7474C341.473 -59.7963 343.082 -45.5233 347.268 -31.4649C368.087 40.1148 443.208 81.5387 514.788 60.9341L511.89 51.061C445.676 70.056 376.35 31.7442 357.033 -34.3624C337.824 -100.576 375.814 -170.01 441.813 -189.541L438.915 -199.414C381.609 -182.351 343.834 -130.625 341.902 -73.7474Z" fill="#ECB9B3"/>
<path d="M512.856 50.8464L512.319 50.9537C445.998 70.2705 376.35 31.9588 357.033 -34.3625C337.716 -100.684 376.028 -170.439 442.349 -189.649L442.886 -189.756L446.32 -177.951L445.784 -177.844C416.808 -169.473 392.877 -150.156 378.389 -123.757C363.794 -97.2496 360.467 -66.7719 368.838 -37.7966C386.223 21.9784 449.11 56.5341 508.885 39.1489L509.422 39.0416L512.856 50.8464ZM357.57 -34.4698L358.106 -34.5771C377.209 31.1002 445.998 68.9827 511.676 50.2025L508.778 40.3294C448.574 57.6073 385.472 22.7296 367.98 -37.4746C359.502 -66.6645 362.936 -97.4642 377.531 -124.186C392.126 -150.8 416.057 -170.117 445.032 -178.702L442.135 -188.575C376.672 -169.259 338.897 -100.362 357.999 -34.6844L357.57 -34.4698Z" fill="#ECB9B3"/>
<path d="M509.744 40.0074L509.207 40.1147C480.017 48.5927 449.218 45.1586 422.496 30.5636C395.774 15.8614 376.35 -8.28471 367.872 -37.4746C359.394 -66.6646 362.829 -97.4642 377.423 -124.186C392.126 -150.908 416.272 -170.332 445.462 -178.81L445.998 -178.917L449.432 -167.112L448.896 -167.005C395.023 -151.337 364.009 -94.7813 379.677 -40.9088C387.296 -14.831 404.574 6.7395 428.399 19.832C452.223 32.9246 479.695 35.9294 505.773 28.4173L506.31 28.31L509.744 40.0074ZM364.438 -73.1035C364.009 -61.2988 365.511 -49.3867 368.945 -37.6893C377.316 -8.71399 396.633 15.2174 423.033 29.7051C449.325 44.1927 479.695 47.6268 508.456 39.3635L505.559 29.4905C479.374 37.0026 451.793 33.8904 427.862 20.6906C403.823 7.49071 386.331 -14.2944 378.604 -40.5868L379.14 -40.6941L378.604 -40.5868C362.936 -94.7813 394.057 -151.766 448.145 -167.863L445.247 -177.737C416.486 -169.259 392.77 -150.049 378.282 -123.757C369.697 -107.874 364.975 -90.596 364.438 -73.1035Z" fill="#ECB9B3"/>
<path d="M506.632 29.1684L506.095 29.2757C479.803 36.8951 452.008 33.8903 427.969 20.5831C403.93 7.38326 386.438 -14.4018 378.711 -40.6942L379.248 -40.8016L378.711 -40.6942C362.828 -95.1034 394.272 -152.195 448.681 -168.078L449.218 -168.186L452.652 -156.381L452.115 -156.273C404.252 -142.322 376.565 -92.0986 390.516 -44.1284C404.467 3.73453 454.691 31.422 502.661 17.471L503.197 17.3636L506.632 29.1684ZM375.706 -72.6744C375.384 -62.1574 376.672 -51.5332 379.677 -40.9089C387.296 -14.8311 404.574 6.73938 428.398 19.8319C452.115 32.8171 479.373 35.9293 505.236 28.5245L502.446 18.6514C454.154 32.3879 403.608 4.48573 389.55 -43.8064C375.492 -92.0986 403.179 -142.752 451.364 -157.025L448.466 -166.898C405.433 -154.127 377.101 -115.279 375.706 -72.6744Z" fill="#ECB9B3"/>
<path d="M533.783 424.627C516.183 440.725 493.003 449.203 469.93 455.32C408.652 471.632 344.37 474.207 283.415 491.7C271.073 495.241 258.732 499.534 248.537 507.475C226.215 524.86 219.669 555.553 217.845 583.777C216.02 612.001 217.093 641.513 204.645 666.946C180.177 716.634 116.324 729.619 72.217 762.994C11.7981 808.603 -7.84068 900.466 28.754 966.787C32.9394 974.406 38.0905 982.026 45.7099 986.319C54.0806 991.04 64.2756 991.255 73.934 990.719C111.28 988.894 147.982 980.094 184.362 971.402C227.074 961.099 270.215 950.69 309.17 930.407C348.341 910.124 381.931 880.612 419.92 858.291C452.544 839.081 488.173 825.237 525.197 817.511C556.212 810.964 589.372 808.174 615.343 790.038C647.537 767.609 661.167 726.721 667.498 687.98C676.191 635.181 675.225 581.416 673.186 527.972C671.254 478.285 668.464 428.705 664.815 379.125C663.098 355.945 660.952 332.014 650.65 311.194C634.659 279 581.967 240.581 571.343 295.741C562.007 342.638 573.919 387.925 533.783 424.627Z" fill="#3DACBE"/>
<path d="M286.098 604.167C306.595 577.66 332.351 552.762 364.975 544.714C405.111 534.733 447.608 552.226 488.495 546.216C536.251 539.241 573.919 501.895 601.177 462.08C615.987 440.403 633.05 414.754 659.342 413.359C689.069 411.857 709.566 442.656 719.117 470.773C746.161 550.509 736.717 639.581 705.166 717.6C673.615 795.618 621.352 863.764 563.08 924.505C522.192 967.216 477.656 1007.03 426.681 1036.86C403.823 1050.28 378.926 1061.76 352.419 1062.83C183.504 1070.24 191.016 833.93 223.103 727.473C236.41 683.044 257.659 640.869 286.098 604.167Z" fill="#1B3B40"/>
<path d="M535.607 -103.581C515.11 -90.0597 491.071 -83.1915 469.179 -72.0306C447.286 -60.9771 426.252 -43.3773 421.423 -19.3385C417.989 -2.48991 423.033 15.1099 419.706 31.9585C415.521 53.207 398.887 69.519 385.258 86.3676C371.628 103.216 359.824 125.538 367.228 145.928C380.214 147.967 388.799 133.157 393.95 121.031C399.101 108.904 409.618 94.7383 422.067 99.0309C428.077 101.07 432.369 107.187 438.701 108.045C450.398 109.655 455.549 93.8797 455.764 82.1823C455.871 70.3776 458.769 54.7094 470.466 53.8509C475.832 53.5289 481.091 56.8557 486.349 55.7826C493.325 54.3875 496.544 46.0168 496.759 38.934C496.973 31.7438 495.686 24.2317 498.69 17.7928C503.412 7.91971 516.398 5.02222 527.236 6.52463C538.075 8.02704 548.485 12.427 559.431 12.3197C573.275 12.2124 585.724 4.80759 597.421 -2.59721C628.328 -22.0214 659.879 -44.5577 674.796 -77.933C686.601 -104.44 686.386 -134.703 684.132 -163.678C682.093 -189.22 678.123 -216.156 662.025 -236.117C651.616 -248.994 630.582 -261.228 613.304 -257.365C590.016 -252.107 598.816 -231.073 596.133 -211.112C590.767 -169.366 571.665 -127.513 535.607 -103.581Z" fill="#9DD5DE"/>
<path d="M-163.663 -340.75C-192.317 -337.101 -217.107 -316.604 -230.843 -291.277C-244.58 -265.843 -248.443 -236.117 -247.155 -207.249C-246.511 -192.868 -244.58 -178.166 -248.228 -164.215C-251.233 -152.732 -257.672 -142.644 -262.823 -131.913C-281.067 -94.1377 -281.818 -47.2407 -260.248 -11.1825C-238.784 24.7683 -193.926 46.8754 -153.146 37.3242C-128.249 31.5292 -98.308 16.6123 -80.6009 35.1779C-70.2985 45.9095 -66.8645 66.5142 -51.9475 66.9435C-42.8257 67.1581 -35.9575 58.5728 -32.9526 49.9875C-29.9478 41.4023 -29.1966 31.9585 -24.4747 24.2317C-16.3187 10.6026 1.49576 6.09531 17.3785 6.6319C33.2613 7.16849 48.9294 11.3538 64.8121 10.1733C68.5682 9.85138 72.6462 9.10019 75.2218 6.4173C79.8363 1.48074 76.7242 -7.42645 70.8218 -10.7533C64.9194 -14.08 57.622 -13.5435 50.8611 -12.5776C10.7249 -6.78259 -29.4112 9.85141 -69.1181 1.6954C-119.879 -8.71426 -154.649 -57.543 -169.244 -107.23C-190.17 -178.166 -179.546 -257.794 -140.698 -320.789C-140.698 -321.003 -147.673 -342.789 -163.663 -340.75Z" fill="#F39200"/>
<path d="M399.316 -158.635C404.896 -141.142 408.76 -122.576 406.291 -104.44C402.75 -78.7916 387.082 -56.4699 380.321 -31.4653C379.57 -28.6751 378.926 -25.5629 380.106 -22.7727C381.823 -18.9094 386.438 -17.4069 389.979 -15.046C401.14 -7.64117 401.462 8.67084 399.209 21.8707C391.696 66.8361 368.838 97.6357 337.395 141.528C376.243 125.431 407.257 112.338 418.955 79.6066C426.252 59.1093 416.701 33.89 428.935 15.7537C433.013 9.63666 439.13 5.23672 445.032 0.836761C470.144 -17.9435 494.076 -40.2652 506.203 -69.1332C519.188 -99.8255 517.363 -135.347 507.168 -167.113C496.973 -198.878 479.052 -227.531 459.949 -254.897C446.535 -274.107 431.94 -293.316 411.872 -305.657C388.477 -320.038 270.751 -352.34 309.6 -294.175C341.258 -246.741 381.072 -215.619 399.316 -158.635Z" fill="#F39200"/>
<path d="M-150.571 545.143C-122.454 547.933 -94.8738 537.202 -68.3668 527.436C-41.7524 517.67 -13.2064 508.763 14.3738 514.987C41.954 521.212 66.7439 548.685 59.7684 576.05C78.4413 575.835 97.5436 575.728 115.465 580.772C133.494 585.923 150.665 597.191 158.284 614.255C167.406 634.323 161.504 658.683 149.055 676.82C136.607 694.956 118.363 708.263 100.441 721.141C48.2856 758.487 -6.01627 795.94 -68.5814 810.428C-150.034 829.423 -242.004 803.667 -296.628 740.351C-321.31 711.805 -337.944 676.927 -348.569 640.654C-358.12 608.03 -363.056 573.26 -355.973 540.099C-348.354 504.363 -327.749 473.671 -310.471 442.013C-301.135 424.949 -280.208 367.643 -254.667 401.447C-245.545 413.574 -248.979 437.398 -245.331 451.993C-241.36 467.661 -235.136 482.685 -226.014 496.1C-208.736 521.963 -181.8 542.138 -150.571 545.143Z" fill="#9DD5DE"/>
<path d="M-83.8202 470.88C-49.4791 453.817 -6.76741 461.973 27.681 445.017C34.0126 441.905 40.2369 437.613 43.0271 431.174C46.8905 422.266 43.3491 411.964 39.7003 402.949C38.4126 399.623 36.9102 396.081 34.1199 393.828C28.4322 389.106 19.3104 391.467 13.8372 396.403C8.36414 401.447 5.14465 408.423 0.85202 414.54C-3.44061 420.657 -9.87956 426.237 -17.3917 425.808C-22.6502 425.486 -27.2647 422.266 -31.8793 419.691C-47.3328 410.784 -66.8643 407.779 -83.4983 414.54C-100.025 421.301 -112.474 438.686 -110.864 456.607C-133.722 451.349 -158.834 456.929 -177.185 471.524C-183.731 476.676 -189.634 483.329 -191.458 491.485C-193.282 499.641 -189.956 509.407 -182.229 512.626C-180.297 513.485 -177.829 514.236 -177.4 516.275C-177.078 518.207 -178.902 519.816 -180.512 520.997C-186.092 524.753 -192.102 527.973 -196.931 532.587C-201.76 537.202 -205.516 543.641 -204.873 550.402C-203.692 562.636 -188.453 569.289 -176.541 566.07C-164.522 563.065 -117.947 487.944 -83.8202 470.88Z" fill="#5AB8C7"/>
<path d="M404.574 316.56C430.652 291.341 459.413 267.088 494.076 256.356C528.739 245.624 570.699 251.205 594.631 278.463C554.495 260.219 500.729 265.156 474.115 300.248C459.842 319.029 455.12 343.389 442.779 363.457C430.438 383.525 403.823 399.408 383.755 387.067C378.926 384.062 374.311 379.447 368.624 379.769C364.116 379.984 360.468 383.311 357.033 386.208C345.229 396.189 330.097 404.13 314.966 401.34C299.834 398.55 287.385 380.842 294.683 367.213C290.283 375.477 267.961 351.974 266.03 348.755C258.41 335.448 258.303 316.346 263.132 301.965C269.356 283.292 273.971 287.156 284.917 300.892C297.795 316.989 307.561 335.555 327.307 344.355C358.321 358.413 383.218 337.272 404.574 316.56Z" fill="#CC5142"/>
<path d="M266.351 826.526L266.137 825.989C232.976 724.897 288.244 615.65 389.443 582.489C490.534 549.329 599.782 604.596 632.942 705.795L633.05 706.332L621.352 710.195L621.138 709.659C590.123 615.006 487.851 563.28 393.199 594.294C298.546 625.308 246.82 727.58 277.834 822.233L277.941 822.77L266.351 826.526ZM449.754 573.904C429.686 573.904 409.403 577.123 389.765 583.562C289.317 616.508 234.371 724.79 266.995 825.238L276.761 822.018C245.854 726.936 297.902 624.45 392.984 593.328C488.066 562.206 590.66 614.04 622.103 708.907L631.869 705.688C615.879 657.181 581.967 617.796 536.358 594.723C508.992 580.879 479.481 573.904 449.754 573.904Z" fill="#3DACBE"/>
<path d="M277.083 822.984L276.868 822.447C245.639 727.258 297.688 624.45 392.877 593.221C438.915 578.089 488.173 581.952 531.529 603.845C574.884 625.737 607.079 663.191 622.103 709.229L622.211 709.766L610.513 713.629L610.299 713.092C581.216 624.342 485.383 575.835 396.633 604.918L396.525 604.381L396.633 604.918C307.883 634.001 259.376 729.834 288.458 818.584L288.566 819.121L277.083 822.984ZM449.432 585.279C430.867 585.279 411.872 588.177 393.306 594.294C298.761 625.308 247.034 727.258 277.727 821.696L287.493 818.477C258.517 729.297 307.346 633.142 396.525 603.952C485.705 574.762 581.967 623.376 611.372 712.341L621.138 709.122C596.026 633.357 525.305 585.279 449.432 585.279Z" fill="#3DACBE"/>
<path d="M287.815 819.55L287.6 819.014C258.303 729.727 307.131 633.25 396.418 603.952C485.705 574.655 582.182 623.484 611.479 712.771L611.587 713.307L599.889 717.171L599.675 716.634C572.631 633.894 483.13 588.499 400.282 615.65C360.253 628.742 327.629 656.752 308.527 694.527C289.424 732.195 286.098 775.121 299.297 815.15L299.405 815.687L287.815 819.55ZM396.633 604.489L396.74 605.026C308.205 634.108 259.591 729.619 288.351 818.262L298.117 815.043C285.132 774.907 288.459 731.98 307.561 694.098C326.77 656.108 359.609 627.991 399.852 614.684C483.022 587.426 572.953 632.82 600.426 715.883L610.192 712.663C580.894 624.235 485.276 575.943 396.633 604.918V604.489Z" fill="#3DACBE"/>
<path d="M298.546 816.009L298.331 815.472C285.132 775.121 288.458 731.98 307.668 694.098C326.877 656.108 359.716 627.991 399.96 614.684C483.344 587.319 573.382 632.928 600.747 716.312L600.855 716.849L589.157 720.712L588.943 720.176C563.724 643.23 480.661 601.162 403.716 626.382L403.608 625.845L403.716 626.382C326.77 651.601 284.702 734.663 309.921 811.609L310.029 812.145L298.546 816.009ZM449.432 607.816C433.12 607.816 416.593 610.392 400.281 615.65C360.253 628.743 327.629 656.752 308.526 694.527C289.531 732.088 286.205 774.692 299.083 814.614L308.848 811.394C283.844 734.019 326.126 650.635 403.501 625.308C480.768 599.982 564.26 642.157 589.909 719.317L599.674 716.098C577.675 649.884 515.753 607.816 449.432 607.816Z" fill="#3DACBE"/>
<path d="M309.17 812.467L308.956 811.93C283.522 734.448 325.912 650.742 403.394 625.415C480.876 599.982 564.582 642.371 589.909 719.853L590.016 720.39L578.319 724.253L578.104 723.717C554.816 652.674 478.086 613.825 407.042 637.113C372.701 648.381 344.799 672.42 328.38 704.722C311.961 737.024 309.17 773.833 320.439 808.174L320.546 808.711L309.17 812.467ZM403.716 625.952L403.823 626.489C327.092 651.601 285.024 734.448 309.922 811.286L319.687 808.067C308.526 773.619 311.424 736.809 327.843 704.4C344.37 671.776 372.487 647.63 407.15 636.254C478.515 612.859 555.675 651.708 579.284 722.966L589.05 719.746C563.616 643.123 480.768 601.269 403.93 626.489L403.716 625.952Z" fill="#3DACBE"/>
<path d="M319.902 808.926L319.687 808.389C296.185 736.809 335.355 659.542 406.935 636.04C478.515 612.538 555.782 651.708 579.284 723.288L579.392 723.824L567.694 727.688L567.48 727.151C546.124 662.01 475.832 626.381 410.691 647.737C345.55 669.093 309.921 739.385 331.277 804.526L331.385 805.062L319.902 808.926ZM449.432 630.352C435.481 630.352 421.315 632.498 407.257 637.113C336.428 660.293 297.58 736.809 320.546 807.638L330.311 804.418C309.17 738.848 345.014 668.234 410.476 646.771C475.939 625.308 546.66 660.937 568.445 726.292L578.211 723.073C559.324 666.41 506.309 630.352 449.432 630.352Z" fill="#3DACBE"/>
<path d="M330.634 805.492L330.419 804.955C308.848 739.278 344.799 668.342 410.477 646.879C476.154 625.308 547.09 661.259 568.553 726.936L568.66 727.473L556.963 731.336L556.748 730.8C547.412 702.146 527.344 678.859 500.407 665.23C473.471 651.601 442.779 649.24 414.233 658.576C354.994 678 322.692 741.961 342.009 801.199L342.116 801.736L330.634 805.492ZM410.691 647.308L410.798 647.845C345.872 669.093 310.244 739.171 331.277 804.204L341.043 800.984C321.834 741.424 354.458 677.142 414.018 657.61C442.886 648.167 473.793 650.528 501.051 664.264C528.095 678 548.27 701.288 557.714 729.941L567.48 726.722C545.909 661.903 475.832 626.489 410.798 647.845L410.691 647.308Z" fill="#3DACBE"/>
<path d="M341.365 801.95L341.151 801.414C331.707 772.546 334.068 741.639 347.804 714.381C361.541 687.122 385.043 666.947 414.018 657.503C442.886 648.059 473.793 650.42 501.051 664.157C528.309 677.893 548.485 701.395 557.929 730.371L558.036 730.907L546.339 734.771L546.124 734.234C528.631 680.898 471.11 651.815 417.774 669.308C392.018 677.786 370.984 695.815 358.75 720.068C346.516 744.322 344.37 771.902 352.848 797.658L352.955 798.194L341.365 801.95ZM449.54 652.889C437.735 652.889 425.823 654.713 414.34 658.576C385.687 667.913 362.399 687.981 348.77 714.917C335.248 741.746 332.78 772.116 342.009 800.662L351.775 797.443C343.404 771.58 345.658 743.892 357.892 719.532C370.34 695.064 391.482 676.82 417.56 668.235L417.667 668.771L417.56 668.235C471.217 650.635 529.168 679.825 547.09 733.375L556.856 730.156C547.412 701.717 527.451 678.644 500.622 665.123C484.525 656.967 467.139 652.889 449.54 652.889Z" fill="#3DACBE"/>
<path d="M352.097 798.409L351.882 797.872C343.297 771.794 345.443 743.999 357.892 719.424C370.34 694.956 391.482 676.712 417.559 668.127L417.667 668.664L417.559 668.127C471.432 650.527 529.597 679.932 547.197 733.804L547.304 734.341L535.607 738.204L535.392 737.668C519.831 690.234 468.642 664.371 421.315 679.932C373.882 695.493 348.019 746.682 363.579 794.009L363.687 794.545L352.097 798.409ZM449.54 664.156C439.023 664.156 428.398 665.766 417.881 669.2C392.126 677.678 371.092 695.707 358.858 719.961C346.624 744.107 344.477 771.472 352.741 797.121L362.506 793.901C347.16 746.146 373.345 694.634 421.101 678.966C468.856 663.298 520.475 689.268 536.358 736.917L546.124 733.697C531.851 691.2 492.144 664.156 449.54 664.156Z" fill="#3DACBE"/>
<path d="M362.828 794.867L362.614 794.331C346.946 746.361 373.131 694.634 421.101 678.859C469.071 663.191 520.797 689.376 536.573 737.346L536.68 737.883L524.983 741.746L524.768 741.209C511.139 699.678 466.388 677.034 424.857 690.664L424.75 690.127L424.857 690.664C404.789 697.21 388.477 711.268 378.926 730.156C369.375 749.043 367.765 770.507 374.311 790.575L374.418 791.111L362.828 794.867ZM449.54 675.425C440.203 675.425 430.759 676.927 421.423 679.932C374.204 695.385 348.341 746.253 363.472 793.579L373.238 790.36C366.799 770.185 368.516 748.614 378.067 729.619C387.726 710.517 404.252 696.244 424.642 689.59C466.495 675.854 511.675 698.605 525.627 740.351L535.392 737.131C522.729 699.463 487.422 675.425 449.54 675.425Z" fill="#3DACBE"/>
<path d="M373.56 791.433L373.345 790.897C366.692 770.614 368.301 748.829 378.067 729.727C387.725 710.624 404.252 696.351 424.642 689.698C466.71 675.961 512.105 698.927 525.841 740.888L525.948 741.424L514.251 745.287L514.036 744.751C502.339 709.229 463.92 689.698 428.398 701.395C392.877 713.093 373.345 751.512 385.043 787.033L385.15 787.57L373.56 791.433ZM424.749 690.234L424.857 690.771C404.789 697.317 388.477 711.376 378.926 730.263C369.482 749.043 367.765 770.292 374.096 790.146L383.862 786.926C372.379 750.975 392.125 712.234 428.076 700.429C464.027 688.625 502.875 708.156 514.895 744L524.661 740.78C510.924 699.571 466.281 677.142 424.964 690.664L424.749 690.234Z" fill="#3DACBE"/>
<path d="M384.184 787.892L383.97 787.355C372.165 751.19 391.911 712.234 427.969 700.43C464.135 688.625 503.09 708.371 514.895 744.429L515.002 744.966L503.305 748.829L503.09 748.292C498.368 733.912 488.388 722.322 474.866 715.454C461.344 708.586 445.998 707.405 431.618 712.127C401.999 721.893 385.687 753.873 395.452 783.599L395.56 784.136L384.184 787.892ZM449.54 698.069C442.564 698.069 435.481 699.142 428.398 701.503C392.984 713.093 373.56 751.19 384.828 786.711L394.594 783.492C385.043 753.444 401.569 721.142 431.618 711.268C446.213 706.439 461.881 707.727 475.617 714.595C489.246 721.463 499.334 733.161 504.163 747.541L513.929 744.322C504.378 715.99 477.871 698.069 449.54 698.069Z" fill="#3DACBE"/>
<path d="M-311.008 682.186L-310.686 681.756C-241.682 600.733 -119.664 590.967 -38.6404 659.971C42.3831 728.975 52.1489 850.993 -16.8552 932.017L-17.1772 932.446L-26.5136 924.505L-26.1917 924.076C38.4125 848.203 29.2906 734.019 -46.5817 669.415C-122.454 604.811 -236.638 613.933 -301.242 689.805L-301.564 690.234L-311.008 682.186ZM0.208008 706.976C-10.3089 689.805 -23.5088 674.244 -39.2842 660.83C-119.664 592.362 -240.823 601.913 -309.506 682.078L-301.672 688.732C-236.638 612.86 -122.025 603.738 -45.8305 668.664C30.2565 733.483 39.593 848.096 -25.0112 924.398L-17.1772 931.051C15.8761 892.095 31.7589 842.623 27.6809 791.648C25.1053 761.17 15.6615 732.302 0.208008 706.976Z" fill="#F39200"/>
<path d="M-302.423 689.483L-302.101 689.054C-237.175 612.753 -122.239 603.631 -45.9379 668.557C-9.02121 700 13.4078 744 17.2712 792.399C21.1346 840.799 6.00302 887.803 -25.4406 924.72L-25.7625 925.149L-35.099 917.208L-34.777 916.778C25.7491 845.735 17.2712 738.527 -53.8793 678.001L-53.5573 677.571L-53.8793 678.001C-124.922 617.474 -232.131 625.952 -292.657 697.103L-292.979 697.532L-302.423 689.483ZM-9.66513 712.556C-19.3235 696.674 -31.6649 682.079 -46.5818 669.308C-122.239 604.811 -236.209 613.826 -300.92 689.269L-293.086 695.922C-232.131 624.772 -124.6 616.294 -53.2354 677.142C18.1297 737.99 26.9296 845.413 -33.7039 916.993L-25.8698 923.647C25.6418 862.799 29.8271 777.268 -9.66513 712.556Z" fill="#F39200"/>
<path d="M-293.837 696.781L-293.515 696.351C-232.56 624.772 -124.815 616.186 -53.2352 677.142C18.3445 738.097 26.9298 845.842 -34.0256 917.422L-34.3476 917.851L-43.6841 909.91L-43.3621 909.481C13.1933 843.16 5.14465 743.141 -61.1766 686.586C-93.264 659.22 -134.151 646.02 -176.327 649.454C-218.502 652.781 -256.706 672.313 -284.072 704.4L-284.394 704.829L-293.837 696.781ZM-53.5571 677.571L-53.8791 678C-124.815 617.582 -231.702 625.952 -292.335 696.673L-284.501 703.327C-257.028 671.24 -218.609 651.708 -176.327 648.381C-133.937 644.947 -92.7274 658.254 -60.4254 685.835C6.2178 742.605 14.3738 842.945 -42.1817 909.803L-34.3476 916.456C25.8566 845.413 17.164 738.527 -53.7718 678.108L-53.5571 677.571Z" fill="#F39200"/>
<path d="M-285.252 704.078L-284.93 703.649C-257.457 671.347 -218.931 651.708 -176.434 648.274C-134.044 644.84 -92.8348 658.147 -60.5327 685.727C6.21774 742.604 14.2664 843.267 -42.611 910.017L-42.9329 910.446L-52.2694 902.505L-51.9475 902.076C0.529999 840.476 -6.87479 747.648 -68.4741 695.063L-68.1522 694.634L-68.4741 695.063C-130.073 642.586 -222.902 649.991 -275.486 711.59L-275.808 712.019L-285.252 704.078ZM-28.8745 724.361C-37.3525 710.517 -48.1914 697.639 -61.1766 686.585C-93.2641 659.22 -134.151 646.02 -176.327 649.454C-218.287 652.781 -256.384 672.205 -283.75 704.078L-275.916 710.732C-223.009 649.025 -129.751 641.727 -67.8302 694.42C-5.90894 747.219 1.71048 840.369 -50.8743 902.505L-43.0402 909.159C2.03244 855.715 5.68115 781.023 -28.8745 724.361Z" fill="#F39200"/>
<path d="M-276.667 711.375L-276.345 710.946C-223.438 648.918 -129.966 641.405 -67.9376 694.312C-5.90906 747.219 1.60306 840.691 -51.3036 902.72L-51.6256 903.149L-60.9621 895.208L-60.6402 894.778C-12.1334 837.901 -19.0016 752.155 -75.879 703.649C-103.352 680.254 -138.444 668.878 -174.61 671.776C-210.775 674.673 -243.506 691.415 -267.009 718.888L-267.331 719.317L-276.667 711.375ZM-68.2596 694.741L-68.5815 695.171C-130.074 642.801 -222.687 650.098 -275.272 711.375L-267.438 718.029C-243.828 690.556 -210.882 673.815 -174.717 670.917C-138.337 668.02 -103.03 679.395 -75.2351 703.005C-18.0357 751.726 -11.0602 837.794 -59.4597 895.208L-51.6256 901.861C0.529907 840.262 -6.98221 747.648 -68.4742 695.278L-68.2596 694.741Z" fill="#F39200"/>
</g>
<defs>
<clipPath id="clip0_257_33281">
<rect width="1094.3" height="1404.01" fill="white" transform="translate(-359.3 -340.857)"/>
</clipPath>
</defs>
</svg>
